<svg width="180" height="180" viewBox="0 0 180 180" fill="none" xmlns="http://www.w3.org/2000/svg">
<rect width="180" height="180" fill="#0F0D13"/>
<path fill-rule="evenodd" clip-rule="evenodd" d="M135 78.2812C135 104.687 114.853 118.125 90 118.125C65.1472 118.125 45 104.687 45 78.2812C45 51.8751 65.1472 22.5 90 22.5C114.853 22.5 135 51.8751 135 78.2812ZM112.5 78.2812C112.5 85.1799 110.158 88.5762 107.575 90.6886C104.417 93.272 98.6353 95.625 90 95.625C81.3647 95.625 75.5834 93.272 72.4247 90.6886C69.8418 88.5762 67.5 85.1799 67.5 78.2812C67.5 70.394 70.6744 61.1869 76.0505 54.1596C81.5244 47.0044 86.8345 45 90 45C93.1655 45 98.4756 47.0044 103.95 54.1596C109.326 61.1869 112.5 70.394 112.5 78.2812Z" fill="#DFE3E7"/>
<path d="M90 149.5C85.6737 153.307 79.0785 157.5 71.0156 157.5C62.8608 157.5 56.25 151.204 56.25 143.438C56.25 135.671 62.8608 129.375 71.0156 129.375C79.0785 129.375 85.6737 133.568 90 137.375C94.3263 133.568 100.922 129.375 108.984 129.375C117.139 129.375 123.75 135.671 123.75 143.438C123.75 151.204 117.139 157.5 108.984 157.5C100.922 157.5 94.3263 153.307 90 149.5Z" fill="#DFE3E7"/>
</svg>
